<?xml version="1.0" encoding="UTF-8"?>
<svg id="Logo" xmlns="http://www.w3.org/2000/svg" xmlns:xlink="http://www.w3.org/1999/xlink" viewBox="0 0 500 500">
  <defs>
    <style>
      .cls-1 {
        fill: #2563eb;
      }

      .cls-1, .cls-2, .cls-3, .cls-4, .cls-5 {
        stroke-width: 0px;
      }

      .cls-6 {
        clip-path: url(#clippath);
      }

      .cls-2 {
        fill: none;
      }

      .cls-3 {
        fill: #f9c423;
      }

      .cls-4 {
        fill: #fff;
      }

      .cls-5 {
        fill: #231f20;
      }
    </style>
    <clipPath id="clippath">
      <rect class="cls-2" y="0" width="500" height="500"/>
    </clipPath>
  </defs>
  <rect class="cls-1" x="0" y="0" width="500" height="500" rx="58.95" ry="58.95"/>
  <g class="cls-6">
    <g>
      <path class="cls-4" d="M481.33,423.25c-1.03,3.24-2.19,6.5-3.44,9.69-11.68,29.64-31.93,54.6-58.56,72.21l-1.76,1.16h-54.98c-1.87-21.17-8.21-39.33-18.92-54.11-10.02-13.83-24.33-25.43-40.9-38.87-3.12-2.53-5.91-4.71-8.37-6.63-1.23-.96-2.39-1.87-3.51-2.76,1.44-1.07,2.76-2.32,3.94-3.74,14.06-16.9,33.35-41.91,45.39-65.04,6.07-11.65,9.7-21.66,10.78-29.77.05-.38.11-.79.15-1.18.14-1.28.21-2.52.21-3.69,0-.63-.01-1.08-.01-1.17-.19-10.45,6.53-18.07,7.3-18.9,1.35-1.48,8.64-8.82,19.17-8.82,12.9,0,22.71,6.57,26.33,9.4,9.55,7.44,15.54,18.17,16.89,30h0c-11.54,2.22-22.84,5.46-33.61,9.65-18.29,7.12-32.73,12.74-36.19,27.03-3.15,13,5.43,24.23,8.13,27.36,4.76,5.51,11.11,9.38,18.36,11.48-2.94,5.2-4.18,10.86-3.27,16.45,2.11,12.87,14.91,19.57,20.32,21.86,4.95,2.09,9.6,2.84,14.48,2.84,5.16,0,10.59-.84,16.92-1.81,7.68-1.19,15.29-3.04,22.63-5.5,4.99-1.68,7.68-7.1,6-12.09-1.68-5-7.09-7.68-12.09-6-6.3,2.12-12.85,3.71-19.45,4.73-11.76,1.81-16.29,2.26-21.07.25-4.71-2-8.54-5.16-8.9-7.36-.51-3.08,3.98-10.11,14.19-13.93,1.2-.35,2.4-.74,3.6-1.17,4.84-1.73,7.44-6.98,5.88-11.88-1.56-4.9-6.71-7.68-11.67-6.29-1.24.35-2.46.74-3.65,1.16-11.37,3.17-22.29,1.2-27.83-5.22-1.9-2.2-4.89-6.86-4.03-10.38,1.11-4.62,11.98-8.85,24.56-13.75,8.74-3.39,17.88-6.11,27.23-8.07,17.62-.96,30.66,4.34,33.76,14.62,1.9,6.31-.3,13.21-6.09,19.75,10.43,2.5,19.61,8.75,25.96,17.85,8.31,11.93,10.54,26.74,6.12,40.64Z"/>
      <path class="cls-4" d="M343.41,506.31H1.41l28.06-13.32c17.84-8.47,33.43-20.39,46.34-35.44,3.24-3.77,6.32-7.77,9.16-11.9,16.08-23.39,24.58-50.81,24.58-79.31,0-8.29-.73-16.6-2.16-24.68-2.14-12.05-6.6-24.53-13.25-37.11-2.24-4.25-4.31-8.66-6.15-13.13-7.69-18.61-11.59-38.37-11.59-58.71,0-40.34,15.47-78.46,43.56-107.37,14.42-16.87,39.43-39.74,76.82-53.27,17-6.16,34.85-9.73,53.04-10.61,0,0,.19-.01.19-.01,18.14-.89,35.07.55,51.13,9.68,13.42,7.63,24.58,19.07,31.87,32.68,3.91,7.31,6.7,15.22,8.2,23.38l.04.22c1.91,12.81,1.24,25.59-1.98,37.97-2,7.75-6.7,25.91-22.94,40.98-16.19,15-35.09,18.96-44.92,19.97h-.04s-.08.02-.11.02l-.27.02c-18.57,1.47-35.8,9.82-48.53,23.52-12.83,13.8-19.89,31.78-19.89,50.64,0,4.43.99,9.71,2.93,15.67,5.13,15.72,16.64,35.71,34.22,59.41,2.5,3.36,5.09,6.78,7.78,10.22,4.32,6.04,9.02,11.79,14.08,17.18.4.44.81.88,1.23,1.31,1.25,1.31,2.46,2.52,3.63,3.66,5.72,5.57,10.64,9.42,16.21,13.76,1.69,1.32,3.42,2.67,5.28,4.15.9.72,1.84,1.47,2.81,2.26,15.52,12.59,28.92,23.46,37.47,35.25,8.37,11.55,13.47,25.95,15.2,42.91Z"/>
      <circle class="cls-4" cx="276.96" cy="299.22" r="25.94"/>
      <path class="cls-5" d="M277.18,108.69c-8.9,0-16.14,7.24-16.14,16.14s7.24,16.14,16.14,16.14,16.14-7.24,16.14-16.14-7.24-16.14-16.14-16.14Z"/>
      <path class="cls-3" d="M376.72,224.97h0c-.3,5.83-2.23,11.35-5.57,15.97-5.66,7.83-14.89,12.36-24.69,12.12-.27,0-.55-.02-.82-.04-4-.2-7.18-1.2-9.05-1.9,0,0-4.37-1.65-7.21-3.97-.42-.34-.84-.71-.84-.71-.6-.53-1.02-.95-1.11-1.05-1.02-1.02-3.36-2.8-3.69-3.06-.72-.56-3.24-2.5-6.86-4.75,0,0-2.9-1.81-5.72-3.27-12.69-6.57-26.88-7.91-26.88-7.91-1.2-.11-2.56-.21-4.05-.27h0c-2.32-.09-4.99-.08-7.93.12-1.03-.33-2.59-.99-3.92-2.4-2.78-2.94-2.57-6.98-2.48-8.71.32-6.05,4.1-10.85,8.27-15.24,8.04-8.46,17.12-18.43,32.93-23.47,7.81-2.49,11.7-2.2,15.27-6.38,4.44-5.2,2.67-10.21,6.12-17.84.64-1.41,1.54-3.02,2.86-4.7,2.21-2.88,5.62-6,10.96-8.87,3.65,3.4,7.44,8.75,9.66,13.66.69,1.52,1.41,3.4,3.64,16.58,1.2,7.09,1.91,11.99,2.27,15.4.25,2.34.98,4.59,2.17,6.62,2.72,4.66,5.87,9.06,9.42,13.13,5.06,5.79,7.64,13.22,7.26,20.93Z"/>
    </g>
  </g>
</svg>