<?xml version="1.0" encoding="UTF-8"?>
<svg id="Logo" xmlns="http://www.w3.org/2000/svg" viewBox="0 0 1300 500">
  <defs>
    <style>
      .cls-1 {
        fill: #2563eb;
        stroke-width: 0px;
      }
    </style>
  </defs>
  <path class="cls-1" d="M439.98,250.96c-9.95-5.54-21.03-8.35-32.95-8.35s-23,2.81-32.95,8.35c-9.94,5.55-17.95,13.37-23.8,23.25-5.85,9.88-8.81,21.18-8.81,33.59s2.96,23.74,8.81,33.68c5.85,9.95,13.85,17.8,23.8,23.34,9.94,5.54,21.02,8.35,32.95,8.35s22.98-2.81,32.86-8.35c9.89-5.55,17.83-13.4,23.62-23.35,5.78-9.95,8.72-21.28,8.72-33.68s-2.9-23.7-8.63-33.59c-5.73-9.89-13.68-17.71-23.62-23.26ZM439.51,307.81c0,10.77-2.99,19.55-8.88,26.08-5.87,6.51-13.81,9.81-23.6,9.81s-17.91-3.27-23.79-9.72c-5.89-6.47-8.88-15.28-8.88-26.17s2.99-19.84,8.87-26.26c5.87-6.39,13.88-9.64,23.79-9.64s17.73,3.27,23.6,9.72c5.89,6.48,8.88,15.28,8.88,26.17Z"/>
  <path class="cls-1" d="M581.11,250.96c-9.95-5.54-21.03-8.35-32.95-8.35s-23,2.81-32.95,8.35c-9.94,5.55-17.95,13.37-23.8,23.25-5.85,9.88-8.81,21.18-8.81,33.59s2.96,23.74,8.81,33.68c5.85,9.95,13.85,17.8,23.8,23.34,9.94,5.54,21.02,8.35,32.95,8.35s22.98-2.81,32.86-8.35c9.88-5.54,17.83-13.4,23.62-23.35,5.78-9.94,8.72-21.27,8.72-33.68s-2.9-23.7-8.63-33.59c-5.73-9.89-13.68-17.71-23.62-23.26ZM580.64,307.81c0,10.77-2.99,19.55-8.88,26.08-5.87,6.51-13.81,9.81-23.6,9.81s-17.91-3.27-23.78-9.72c-5.89-6.47-8.88-15.28-8.88-26.17s2.99-19.84,8.87-26.26c5.87-6.39,13.88-9.64,23.79-9.64s17.73,3.27,23.61,9.72c5.89,6.48,8.88,15.28,8.88,26.17Z"/>
  <path class="cls-1" d="M702.8,303.55c-5.09-2.51-11.8-5.19-19.94-7.94-8.05-2.6-14.04-5.06-17.81-7.29-3.62-2.15-5.38-5.05-5.38-8.88,0-3.52,1.03-6.13,3.16-7.97,2.12-1.85,4.98-2.78,8.49-2.78,4.11,0,7.51,1.12,10.12,3.33,1.1.94,2,2.04,2.68,3.27,2.22,4.08,6.06,6.51,10.27,6.51h11.52c4.08,0,7.82-2.07,10.01-5.54,2.11-3.35,2.37-7.45.69-10.96-2.32-4.86-5.74-9.09-10.18-12.55-8.59-6.72-20.04-10.12-34.03-10.12s-25.08,3.41-33.67,10.12c-8.65,6.76-13.03,16.23-13.03,28.14,0,8.03,1.92,14.64,5.71,19.66,3.76,4.97,8.32,8.79,13.55,11.35,5.15,2.52,11.89,5.07,20.04,7.58,5.59,1.67,9.94,3.17,12.94,4.46,2.95,1.27,5.47,2.91,7.5,4.88,1.96,1.91,2.92,4.26,2.92,7.19,0,3.5-1.2,6.16-3.67,8.13-2.49,1.98-5.96,2.98-10.32,2.98s-7.68-1.18-10.28-3.5c-1.2-1.07-2.19-2.38-2.93-3.91-2.09-4.29-6.23-6.96-10.79-6.96h-10.77c-4.06,0-7.78,2.06-9.95,5.5-2.14,3.4-2.4,7.57-.68,11.17.95,2,2.11,3.92,3.43,5.69,4.43,5.95,10.43,10.5,17.82,13.53,7.35,3.01,15.79,4.54,25.06,4.54s17.92-1.78,24.93-5.28c7.03-3.52,12.48-8.32,16.19-14.28,3.71-5.96,5.59-12.68,5.59-19.96,0-7.67-1.92-14.04-5.72-18.95-3.77-4.85-8.29-8.61-13.45-11.16Z"/>
  <path class="cls-1" d="M805.45,244.4h-57.18c-4.92,0-8.92,4-8.92,8.92v109.69c0,4.92,4,8.92,8.92,8.92h57.18c6.94,0,12.59-5.65,12.59-12.59v-.9c0-6.94-5.65-12.59-12.59-12.59h-33.91v-26.18h28.53c6.94,0,12.59-5.65,12.59-12.59s-5.65-12.59-12.59-12.59h-28.53v-24.02h33.91c6.94,0,12.59-5.65,12.59-12.59v-.9c0-6.94-5.65-12.59-12.59-12.59Z"/>
  <path class="cls-1" d="M1003.42,250.75c-3.12-4.03-7.83-6.35-12.99-6.35-7.76,0-14.5,5.52-16.02,13.14l-15.15,75.88-16.89-71.94c-2.36-10.05-11.22-17.08-21.55-17.08s-19.07,6.94-21.5,16.88l-17.66,72.19-15-75.91c-1.51-7.63-8.25-13.17-16.02-13.17-5.08,0-9.77,2.3-12.89,6.3-3.12,4.01-4.19,9.12-2.94,14.04l22.48,88.64c2.77,10.91,12.56,18.53,23.85,18.53s21.09-7.64,23.83-18.59l15.57-62.02,14.99,61.83c2.68,11.06,12.5,18.78,23.88,18.78s20.96-7.56,23.78-18.38l23.12-88.69c1.29-4.93.24-10.07-2.88-14.11Z"/>
  <path class="cls-1" d="M1213.97,252c-2.9-4.76-7.95-7.6-13.52-7.6-6.17,0-11.81,3.62-14.39,9.23l-19.54,42.54-19.7-42.58c-2.58-5.58-8.22-9.19-14.37-9.19h-.39c-5.57,0-10.63,2.84-13.52,7.6-2.9,4.76-3.1,10.55-.54,15.5l32.16,62.21v26.12c0,8.87,7.22,16.09,16.09,16.09s16.09-7.22,16.09-16.09v-26.12l32.16-62.21c2.56-4.95,2.36-10.74-.54-15.5Z"/>
  <path class="cls-1" d="M308.72,238.77h-97.46c-8.82,0-15.96,7.15-15.96,15.96h0c0,8.82,7.15,15.96,15.96,15.96h75.61c-3.04,20.82-11.35,37.31-24.91,49.47-13.57,12.16-31.23,18.24-52.98,18.24-16.14,0-30.52-3.62-43.16-10.88-12.63-7.25-22.51-17.6-29.64-31.05-7.14-13.45-10.7-28.94-10.7-46.48s3.56-32.98,10.7-46.31c7.13-13.33,17.01-23.62,29.64-30.87,12.63-7.25,27.02-10.88,43.16-10.88,14.74,0,27.72,3.1,38.94,9.3,9.18,5.07,16.72,12.13,22.61,21.18,2.54,3.9,6.79,6.36,11.44,6.36h18.46c10.66,0,17.13-11.78,11.42-20.78-8.62-13.61-19.82-24.75-33.59-33.42-20.23-12.75-43.33-19.12-69.29-19.12-22.69,0-43.56,5.32-62.63,15.96-19.06,10.65-34.15,25.44-45.26,44.38-11.11,18.95-16.67,40.35-16.67,64.2s5.55,45.26,16.67,64.2c11.11,18.94,26.14,33.74,45.08,44.38,18.95,10.65,39.88,15.96,62.8,15.96,21.28,0,40.64-4.74,58.06-14.21,17.42-9.47,31.58-22.16,42.45-38.07,10.88-15.9,17.6-33.33,20.17-52.27v-10.27c0-11.57-9.38-20.96-20.96-20.96Z"/>
  <path class="cls-1" d="M1123.27,356.27c-.09-.44-.21-.88-.35-1.33-.15-.41-.3-.86-.5-1.27-.09-.24-.21-.47-.32-.71l-45.01-101.67c-2.09-4.72-6.75-7.76-11.92-7.76s-9.85,3.04-11.95,7.76l-43.44,98.1-1.89,4.28c-.77,1.71-1.12,3.51-1.12,5.28,0,2.27.59,4.42,1.62,6.28.35.68.77,1.3,1.24,1.89.44.5.88,1,1.39,1.45.24.24.5.47.8.68.24.18.47.35.74.53.27.21.56.38.88.53.8.47,1.68.83,2.57,1.09.29.12.59.18.88.24.94.24,1.95.35,2.95.35.71,0,1.42-.06,2.06-.18.38-.06.77-.12,1.12-.24.21-.03.41-.09.62-.18.32-.09.65-.18.94-.32.21-.06.38-.15.56-.24.21-.09.38-.18.59-.27l.5-.27c11.62-5.9,23.24-11.83,34.86-17.76l3.72-1.89,39.85,19.97c.91.47,1.89.83,2.86,1.03,1,.24,2.01.35,2.98.35,2.48,0,4.9-.71,6.96-2.04.12-.06.24-.12.32-.21.56-.35,1.12-.8,1.62-1.3.06-.03.09-.06.15-.15.29-.3.59-.59.86-.91.59-.65,1.09-1.39,1.5-2.18.12-.15.18-.3.27-.44.12-.27.24-.5.32-.77.18-.38.32-.8.44-1.21.12-.41.24-.86.32-1.27.09-.44.15-.86.21-1.3.12-.88.09-1.8,0-2.65-.06-.44-.12-.88-.21-1.33ZM1070.54,324.33l-5.84-2.92-5.87,3.01-9.59,4.9c-.86.44-1.74.88-2.6,1.33l18.52-41.82,18.67,42.18-13.3-6.67Z"/>
</svg>